REM DIRINDEX 1\2\6,1\2\7,1\2\8,1\3\9,1\3\10,1\3\11,1\4\12,1\4\13,1\4\14,1\5\15,1\5\16,1\5\17,1\5\18
REM DIRNAME cjc019,folder01,folder02,folder03,folder04,folder05,folder06,folder07,folder08,folder09,folder10,folder11,folder12,folder13,folder14,folder15,folder16,folder17
TITLE ""
FILE "2Q_t_0844-0861.mp3" MP3
  TRACK 01 AUDIO
    TITLE "13:cjc019_3749"
    INDEX 01 00:00:00
  TRACK 02 AUDIO
    TITLE "0:"
    INDEX 01 00:00:64
  TRACK 03 AUDIO
    TITLE "14:cjc019_3750"
    INDEX 01 00:01:46
  TRACK 04 AUDIO
    TITLE "0:"
    INDEX 01 00:02:73
  TRACK 05 AUDIO
    TITLE "13:cjc019_3751"
    INDEX 01 00:03:53
  TRACK 06 AUDIO
    TITLE "0:"
    INDEX 01 00:04:68
  TRACK 07 AUDIO
    TITLE "14:cjc019_3752"
    INDEX 01 00:05:44
  TRACK 08 AUDIO
    TITLE "0:"
    INDEX 01 00:08:19
  TRACK 09 AUDIO
    TITLE "13:cjc019_3753"
    INDEX 01 00:09:00
  TRACK 10 AUDIO
    TITLE "0:"
    INDEX 01 00:10:25
  TRACK 11 AUDIO
    TITLE "14:cjc019_3754"
    INDEX 01 00:11:01
  TRACK 12 AUDIO
    TITLE "0:"
    INDEX 01 00:12:44
  TRACK 13 AUDIO
    TITLE "13:cjc019_3755"
    INDEX 01 00:13:26
  TRACK 14 AUDIO
    TITLE "0:"
    INDEX 01 00:14:45
  TRACK 15 AUDIO
    TITLE "14:cjc019_3756"
    INDEX 01 00:15:25
  TRACK 16 AUDIO
    TITLE "0:"
    INDEX 01 00:17:08
  TRACK 17 AUDIO
    TITLE "13:cjc019_3757"
    INDEX 01 00:17:61
  TRACK 18 AUDIO
    TITLE "0:"
    INDEX 01 00:19:07
  TRACK 19 AUDIO
    TITLE "14:cjc019_3758"
    INDEX 01 00:19:54
  TRACK 20 AUDIO
    TITLE "0:"
    INDEX 01 00:22:60
  TRACK 21 AUDIO
    TITLE "13:cjc019_3759"
    INDEX 01 00:23:42
  TRACK 22 AUDIO
    TITLE "0:"
    INDEX 01 00:24:63
  TRACK 23 AUDIO
    TITLE "14:cjc019_3760"
    INDEX 01 00:25:41
  TRACK 24 AUDIO
    TITLE "0:"
    INDEX 01 00:28:02
  TRACK 25 AUDIO
    TITLE "13:cjc019_3761"
    INDEX 01 00:28:53
  TRACK 26 AUDIO
    TITLE "0:"
    INDEX 01 00:30:12
  TRACK 27 AUDIO
    TITLE "14:cjc019_3762"
    INDEX 01 00:30:65
  TRACK 28 AUDIO
    TITLE "0:"
    INDEX 01 00:34:00
  TRACK 29 AUDIO
    TITLE "13:cjc019_3763"
    INDEX 01 00:34:55
  TRACK 30 AUDIO
    TITLE "0:"
    INDEX 01 00:36:11
  TRACK 31 AUDIO
    TITLE "14:cjc019_3764"
    INDEX 01 00:36:68
  TRACK 32 AUDIO
    TITLE "0:"
    INDEX 01 00:40:07
  TRACK 33 AUDIO
    TITLE "13:cjc019_3765"
    INDEX 01 00:40:62
  TRACK 34 AUDIO
    TITLE "0:"
    INDEX 01 00:42:18
  TRACK 35 AUDIO
    TITLE "14:cjc019_3766"
    INDEX 01 00:42:74
  TRACK 36 AUDIO
    TITLE "0:"
    INDEX 01 00:44:54
  TRACK 37 AUDIO
    TITLE "13:cjc019_3767"
    INDEX 01 00:45:32
  TRACK 38 AUDIO
    TITLE "0:"
    INDEX 01 00:46:54
  TRACK 39 AUDIO
    TITLE "14:cjc019_3768"
    INDEX 01 00:47:34
  TRACK 40 AUDIO
    TITLE "0:"
    INDEX 01 00:52:04
  TRACK 41 AUDIO
    TITLE "13:cjc019_3769"
    INDEX 01 00:52:57
  TRACK 42 AUDIO
    TITLE "0:"
    INDEX 01 00:53:66
  TRACK 43 AUDIO
    TITLE "14:cjc019_3770"
    INDEX 01 00:54:50
  TRACK 44 AUDIO
    TITLE "0:"
    INDEX 01 00:56:06
  TRACK 45 AUDIO
    TITLE "13:cjc019_3771"
    INDEX 01 00:56:65
  TRACK 46 AUDIO
    TITLE "0:"
    INDEX 01 00:58:03
  TRACK 47 AUDIO
    TITLE "14:cjc019_3772"
    INDEX 01 00:58:60
  TRACK 48 AUDIO
    TITLE "0:"
    INDEX 01 01:01:56
  TRACK 49 AUDIO
    TITLE "13:cjc019_3773"
    INDEX 01 01:02:34
  TRACK 50 AUDIO
    TITLE "0:"
    INDEX 01 01:03:55
  TRACK 51 AUDIO
    TITLE "14:cjc019_3774"
    INDEX 01 01:04:39
  TRACK 52 AUDIO
    TITLE "0:"
    INDEX 01 01:08:58
  TRACK 53 AUDIO
    TITLE "13:cjc019_3775"
    INDEX 01 01:09:38
  TRACK 54 AUDIO
    TITLE "0:"
    INDEX 01 01:10:63
  TRACK 55 AUDIO
    TITLE "14:cjc019_3776"
    INDEX 01 01:11:41
  TRACK 56 AUDIO
    TITLE "0:"
    INDEX 01 01:13:02
  TRACK 57 AUDIO
    TITLE "13:cjc019_3777"
    INDEX 01 01:13:53
  TRACK 58 AUDIO
    TITLE "0:"
    INDEX 01 01:15:11
  TRACK 59 AUDIO
    TITLE "14:cjc019_3778"
    INDEX 01 01:15:68
  TRACK 60 AUDIO
    TITLE "0:"
    INDEX 01 01:20:24
  TRACK 61 AUDIO
    TITLE "13:cjc019_3779"
    INDEX 01 01:21:04
  TRACK 62 AUDIO
    TITLE "0:"
    INDEX 01 01:22:03
  TRACK 63 AUDIO
    TITLE "14:cjc019_3780"
    INDEX 01 01:22:60
  TRACK 64 AUDIO
    TITLE "0:"
    INDEX 01 01:25:49
  TRACK 65 AUDIO
    TITLE "13:cjc019_3781"
    INDEX 01 01:26:30
  TRACK 66 AUDIO
    TITLE "0:"
    INDEX 01 01:27:28
  TRACK 67 AUDIO
    TITLE "14:cjc019_3782"
    INDEX 01 01:28:14
  TRACK 68 AUDIO
    TITLE "0:"
    INDEX 01 01:31:14
  TRACK 69 AUDIO
    TITLE "13:cjc019_3783"
    INDEX 01 01:31:71
  TRACK 70 AUDIO
    TITLE "0:"
    INDEX 01 01:33:07
  TRACK 71 AUDIO
    TITLE "14:cjc019_3784"
    INDEX 01 01:33:66
  TRACK 72 AUDIO
    TITLE "0:"
    INDEX 01 01:37:24
